# xmcd
#
# Track frame offsets: 
#        150
#        12239
#        21591
#        40042
#        51573
#        61225
#        76222
#        90543
#        106979
#        118347
#        134711
#        149234
#        161544
#        175154
#        187830
#
# Disc length: 2608 seconds
#
# Revision: 2
# Processed by: cddbd v1.5.2PL0 Copyright (c) Steve Scherf et al.
# Submitted via: ExactAudioCopy v0.90b4
#
DISCID=d40a2e0f
DTITLE=Devil in a Woodpile - Devil in a Woodpile
DYEAR=1998
DGENRE=
TTITLE0=Good Morning School Girl
TTITLE1=Can't Wait
TTITLE2=Stranger Here
TTITLE3=Boogie Woogie Dance
TTITLE4=I Got a Woman
TTITLE5=Some Day Baby
TTITLE6=Easy Ridin' Mama
TTITLE7=Whistle Gait
TTITLE8=Keep on Drinkin'
TTITLE9=Steel Guitar Rag
TTITLE10=My Baby Called Me
TTITLE11=Whiskey Headed Blues
TTITLE12=Barbecue
TTITLE13=The Cooker-Man Chug/I Love You Baby
TTITLE14=Fly Soup
EXTD=
EXTT0=
EXTT1=
EXTT2=
EXTT3=
EXTT4=
EXTT5=
EXTT6=
EXTT7=
EXTT8=
EXTT9=
EXTT10=
EXTT11=
EXTT12=
EXTT13=
EXTT14=
PLAYORDER=
